<mxfile host="app.diagrams.net" agent="Mozilla/5.0 (X11; Linux x86_64) AppleWebKit/537.36 (KHTML, like Gecko) Chrome/129.0.0.0 Safari/537.36" version="24.9.0">
  <diagram name="Page-1" id="keUKzYsI9RVDwh2JuuE4">
    <mxGraphModel dx="3081" dy="1283" grid="1" gridSize="10" guides="1" tooltips="1" connect="1" arrows="1" fold="1" page="1" pageScale="1" pageWidth="850" pageHeight="1100" math="0" shadow="0">
      <root>
        <mxCell id="0" />
        <mxCell id="1" parent="0" />
        <mxCell id="L2RF3udGC4X2GpVjZguj-7" value="" style="edgeStyle=orthogonalEdgeStyle;rounded=0;orthogonalLoop=1;jettySize=auto;html=1;dashed=1;" parent="1" source="L2RF3udGC4X2GpVjZguj-1" target="L2RF3udGC4X2GpVjZguj-3" edge="1">
          <mxGeometry relative="1" as="geometry">
            <Array as="points">
              <mxPoint x="440" y="370" />
              <mxPoint x="440" y="370" />
            </Array>
          </mxGeometry>
        </mxCell>
        <mxCell id="L2RF3udGC4X2GpVjZguj-8" value="Charity Management - HTTPS/REST" style="edgeLabel;html=1;align=center;verticalAlign=middle;resizable=0;points=[];fontFamily=Helvetica;fontSize=11;fontColor=default;labelBackgroundColor=default;" parent="L2RF3udGC4X2GpVjZguj-7" vertex="1" connectable="0">
          <mxGeometry x="-0.1586" relative="1" as="geometry">
            <mxPoint as="offset" />
          </mxGeometry>
        </mxCell>
        <object placeholders="1" c4Name="Charity Admin" c4Type="Person" c4Description="Description of person." label="&lt;font style=&quot;font-size: 16px&quot;&gt;&lt;b&gt;%c4Name%&lt;/b&gt;&lt;/font&gt;&lt;div&gt;[%c4Type%]&lt;/div&gt;&lt;br&gt;&lt;div&gt;&lt;font style=&quot;font-size: 11px&quot;&gt;&lt;font color=&quot;#cccccc&quot;&gt;%c4Description%&lt;/font&gt;&lt;/div&gt;" id="L2RF3udGC4X2GpVjZguj-1">
          <mxCell style="html=1;fontSize=11;dashed=0;whiteSpace=wrap;fillColor=#083F75;strokeColor=#06315C;fontColor=#ffffff;shape=mxgraph.c4.person2;align=center;metaEdit=1;points=[[0.5,0,0],[1,0.5,0],[1,0.75,0],[0.75,1,0],[0.5,1,0],[0.25,1,0],[0,0.75,0],[0,0.5,0]];resizable=0;" parent="1" vertex="1">
            <mxGeometry x="340" y="110" width="200" height="180" as="geometry" />
          </mxCell>
        </object>
        <object placeholders="1" c4Name="API Gateway" c4Type="Container" c4Technology="Nginx" c4Description="Routing between project management services." label="&lt;font style=&quot;font-size: 16px&quot;&gt;&lt;b&gt;%c4Name%&lt;/b&gt;&lt;/font&gt;&lt;div&gt;[%c4Type%:&amp;nbsp;%c4Technology%]&lt;/div&gt;&lt;br&gt;&lt;div&gt;&lt;font style=&quot;font-size: 11px&quot;&gt;&lt;font color=&quot;#E6E6E6&quot;&gt;%c4Description%&lt;/font&gt;&lt;/div&gt;" id="L2RF3udGC4X2GpVjZguj-2">
          <mxCell style="shape=hexagon;size=50;perimeter=hexagonPerimeter2;whiteSpace=wrap;html=1;fixedSize=1;rounded=1;labelBackgroundColor=none;fillColor=#23A2D9;fontSize=12;fontColor=#ffffff;align=center;strokeColor=#0E7DAD;metaEdit=1;points=[[0.5,0,0],[1,0.25,0],[1,0.5,0],[1,0.75,0],[0.5,1,0],[0,0.75,0],[0,0.5,0],[0,0.25,0]];resizable=0;" parent="1" vertex="1">
            <mxGeometry x="340" y="600" width="200" height="170" as="geometry" />
          </mxCell>
        </object>
        <object placeholders="1" c4Name="Admin Panel Web Application" c4Type="Container" c4Technology="React.js" c4Description="UI + CRUD operations for project management." label="&lt;font style=&quot;font-size: 16px&quot;&gt;&lt;b&gt;%c4Name%&lt;/b&gt;&lt;/font&gt;&lt;div&gt;[%c4Type%:&amp;nbsp;%c4Technology%]&lt;/div&gt;&lt;br&gt;&lt;div&gt;&lt;font style=&quot;font-size: 11px&quot;&gt;&lt;font color=&quot;#E6E6E6&quot;&gt;%c4Description%&lt;/font&gt;&lt;/div&gt;" id="L2RF3udGC4X2GpVjZguj-3">
          <mxCell style="shape=mxgraph.c4.webBrowserContainer2;whiteSpace=wrap;html=1;boundedLbl=1;rounded=0;labelBackgroundColor=none;strokeColor=#118ACD;fillColor=#23A2D9;strokeColor=#118ACD;strokeColor2=#0E7DAD;fontSize=12;fontColor=#ffffff;align=center;metaEdit=1;points=[[0.5,0,0],[1,0.25,0],[1,0.5,0],[1,0.75,0],[0.5,1,0],[0,0.75,0],[0,0.5,0],[0,0.25,0]];resizable=0;" parent="1" vertex="1">
            <mxGeometry x="320" y="370" width="240" height="160" as="geometry" />
          </mxCell>
        </object>
        <mxCell id="L2RF3udGC4X2GpVjZguj-4" style="edgeStyle=orthogonalEdgeStyle;rounded=0;orthogonalLoop=1;jettySize=auto;html=1;entryX=0.5;entryY=0;entryDx=0;entryDy=0;entryPerimeter=0;dashed=1;dashPattern=8 8;" parent="1" source="L2RF3udGC4X2GpVjZguj-3" target="L2RF3udGC4X2GpVjZguj-2" edge="1">
          <mxGeometry relative="1" as="geometry" />
        </mxCell>
        <mxCell id="L2RF3udGC4X2GpVjZguj-6" value="User Actions - HTTPS/REST" style="edgeLabel;html=1;align=center;verticalAlign=middle;resizable=0;points=[];" parent="L2RF3udGC4X2GpVjZguj-4" vertex="1" connectable="0">
          <mxGeometry x="0.0082" relative="1" as="geometry">
            <mxPoint as="offset" />
          </mxGeometry>
        </mxCell>
        <object placeholders="1" c4Name="Email Notification Service" c4Type="Software System" c4Description="Sends emails to end users." label="&lt;font style=&quot;font-size: 16px&quot;&gt;&lt;b&gt;%c4Name%&lt;/b&gt;&lt;/font&gt;&lt;div&gt;[%c4Type%]&lt;/div&gt;&lt;br&gt;&lt;div&gt;&lt;font style=&quot;font-size: 11px&quot;&gt;&lt;font color=&quot;#cccccc&quot;&gt;%c4Description%&lt;/font&gt;&lt;/div&gt;" id="L2RF3udGC4X2GpVjZguj-12">
          <mxCell style="rounded=1;whiteSpace=wrap;html=1;labelBackgroundColor=none;fillColor=#8C8496;fontColor=#ffffff;align=center;arcSize=10;strokeColor=#736782;metaEdit=1;resizable=0;points=[[0.25,0,0],[0.5,0,0],[0.75,0,0],[1,0.25,0],[1,0.5,0],[1,0.75,0],[0.75,1,0],[0.5,1,0],[0.25,1,0],[0,0.75,0],[0,0.5,0],[0,0.25,0]];fontFamily=Helvetica;fontSize=11;" parent="1" vertex="1">
            <mxGeometry x="10" y="850" width="240" height="120" as="geometry" />
          </mxCell>
        </object>
        <mxCell id="L2RF3udGC4X2GpVjZguj-27" style="edgeStyle=orthogonalEdgeStyle;shape=connector;rounded=0;orthogonalLoop=1;jettySize=auto;html=1;dashed=1;strokeColor=default;align=center;verticalAlign=middle;fontFamily=Helvetica;fontSize=11;fontColor=default;labelBackgroundColor=default;endArrow=classic;" parent="1" source="L2RF3udGC4X2GpVjZguj-18" target="L2RF3udGC4X2GpVjZguj-20" edge="1">
          <mxGeometry relative="1" as="geometry">
            <Array as="points">
              <mxPoint x="430" y="1010" />
              <mxPoint x="650" y="1010" />
            </Array>
          </mxGeometry>
        </mxCell>
        <mxCell id="L2RF3udGC4X2GpVjZguj-28" value="Media Files (Binary) - HTTPS/REST" style="edgeLabel;html=1;align=center;verticalAlign=middle;resizable=0;points=[];fontFamily=Helvetica;fontSize=11;fontColor=default;labelBackgroundColor=default;" parent="L2RF3udGC4X2GpVjZguj-27" vertex="1" connectable="0">
          <mxGeometry x="0.0863" y="-1" relative="1" as="geometry">
            <mxPoint x="-24" as="offset" />
          </mxGeometry>
        </mxCell>
        <object placeholders="1" c4Name="User (Donor and Charity) Management Service" c4Type="Container: Spring Boot" c4Description="Manage data about charities and donors form the Craritan Admin perpective." label="&lt;font style=&quot;font-size: 16px&quot;&gt;&lt;b&gt;%c4Name%&lt;/b&gt;&lt;/font&gt;&lt;div&gt;[%c4Type%]&lt;/div&gt;&lt;br&gt;&lt;div&gt;&lt;font style=&quot;font-size: 11px&quot;&gt;&lt;font color=&quot;#cccccc&quot;&gt;%c4Description%&lt;/font&gt;&lt;/div&gt;" id="L2RF3udGC4X2GpVjZguj-18">
          <mxCell style="rounded=1;whiteSpace=wrap;html=1;labelBackgroundColor=none;fillColor=#1061B0;fontColor=#ffffff;align=center;arcSize=10;strokeColor=#0D5091;metaEdit=1;resizable=0;points=[[0.25,0,0],[0.5,0,0],[0.75,0,0],[1,0.25,0],[1,0.5,0],[1,0.75,0],[0.75,1,0],[0.5,1,0],[0.25,1,0],[0,0.75,0],[0,0.5,0],[0,0.25,0]];fontFamily=Helvetica;fontSize=11;" parent="1" vertex="1">
            <mxGeometry x="310" y="850" width="240" height="120" as="geometry" />
          </mxCell>
        </object>
        <object placeholders="1" c4Name="User (Donor and Charity) Management System Database Schema" c4Type="Container" c4Technology="MySQL 8" c4Description="Stores data about donors and charities." label="&lt;font style=&quot;font-size: 12px&quot;&gt;&lt;b&gt;%c4Name%&lt;/b&gt;&lt;/font&gt;&lt;div&gt;[%c4Type%:&amp;nbsp;%c4Technology%]&lt;/div&gt;&lt;br&gt;&lt;div&gt;&lt;font style=&quot;font-size: 11px&quot;&gt;&lt;font color=&quot;#E6E6E6&quot;&gt;%c4Description%&lt;/font&gt;&lt;/div&gt;" id="L2RF3udGC4X2GpVjZguj-19">
          <mxCell style="shape=cylinder3;size=15;whiteSpace=wrap;html=1;boundedLbl=1;rounded=0;labelBackgroundColor=none;fillColor=#23A2D9;fontSize=12;fontColor=#ffffff;align=center;strokeColor=#0E7DAD;metaEdit=1;points=[[0.5,0,0],[1,0.25,0],[1,0.5,0],[1,0.75,0],[0.5,1,0],[0,0.75,0],[0,0.5,0],[0,0.25,0]];resizable=0;fontFamily=Helvetica;" parent="1" vertex="1">
            <mxGeometry x="320" y="1070" width="240" height="120" as="geometry" />
          </mxCell>
        </object>
        <object placeholders="1" c4Name="Object Storage" c4Type="Container" c4Technology="AWS S3" c4Description="Stores donors&#39; and charities&#39; static media data." label="&lt;font style=&quot;font-size: 16px&quot;&gt;&lt;b&gt;%c4Name%&lt;/b&gt;&lt;/font&gt;&lt;div&gt;[%c4Type%:&amp;nbsp;%c4Technology%]&lt;/div&gt;&lt;br&gt;&lt;div&gt;&lt;font style=&quot;font-size: 11px&quot;&gt;&lt;font color=&quot;#E6E6E6&quot;&gt;%c4Description%&lt;/font&gt;&lt;/div&gt;" id="L2RF3udGC4X2GpVjZguj-20">
          <mxCell style="shape=cylinder3;size=15;whiteSpace=wrap;html=1;boundedLbl=1;rounded=0;labelBackgroundColor=none;fillColor=#23A2D9;fontSize=12;fontColor=#ffffff;align=center;strokeColor=#0E7DAD;metaEdit=1;points=[[0.5,0,0],[1,0.25,0],[1,0.5,0],[1,0.75,0],[0.5,1,0],[0,0.75,0],[0,0.5,0],[0,0.25,0]];resizable=0;fontFamily=Helvetica;" parent="1" vertex="1">
            <mxGeometry x="610" y="1070" width="240" height="120" as="geometry" />
          </mxCell>
        </object>
        <mxCell id="L2RF3udGC4X2GpVjZguj-21" style="edgeStyle=orthogonalEdgeStyle;shape=connector;rounded=0;orthogonalLoop=1;jettySize=auto;html=1;entryX=0.46;entryY=0.002;entryDx=0;entryDy=0;entryPerimeter=0;dashed=1;strokeColor=default;align=center;verticalAlign=middle;fontFamily=Helvetica;fontSize=11;fontColor=default;labelBackgroundColor=default;endArrow=classic;" parent="1" source="L2RF3udGC4X2GpVjZguj-18" target="L2RF3udGC4X2GpVjZguj-19" edge="1">
          <mxGeometry relative="1" as="geometry">
            <Array as="points">
              <mxPoint x="410" y="1020" />
              <mxPoint x="430" y="1020" />
            </Array>
          </mxGeometry>
        </mxCell>
        <mxCell id="L2RF3udGC4X2GpVjZguj-22" value="Donor and Charity data - SQL" style="edgeLabel;html=1;align=center;verticalAlign=middle;resizable=0;points=[];fontFamily=Helvetica;fontSize=11;fontColor=default;labelBackgroundColor=default;" parent="L2RF3udGC4X2GpVjZguj-21" vertex="1" connectable="0">
          <mxGeometry x="-0.0131" y="-1" relative="1" as="geometry">
            <mxPoint x="1" y="19" as="offset" />
          </mxGeometry>
        </mxCell>
        <mxCell id="L2RF3udGC4X2GpVjZguj-25" style="edgeStyle=orthogonalEdgeStyle;shape=connector;rounded=0;orthogonalLoop=1;jettySize=auto;html=1;entryX=0.5;entryY=1;entryDx=0;entryDy=0;entryPerimeter=0;dashed=1;strokeColor=default;align=center;verticalAlign=middle;fontFamily=Helvetica;fontSize=11;fontColor=default;labelBackgroundColor=default;endArrow=classic;exitX=0.844;exitY=1.012;exitDx=0;exitDy=0;exitPerimeter=0;" parent="1" edge="1" target="L2RF3udGC4X2GpVjZguj-19" source="I_xNkVySgG1u-45DmAxw-5">
          <mxGeometry relative="1" as="geometry">
            <mxPoint x="720.1600000000003" y="970" as="sourcePoint" />
            <mxPoint x="530" y="1077.92" as="targetPoint" />
            <Array as="points">
              <mxPoint x="803" y="988" />
              <mxPoint x="1010" y="988" />
              <mxPoint x="1010" y="1220" />
              <mxPoint x="440" y="1220" />
            </Array>
          </mxGeometry>
        </mxCell>
        <mxCell id="L2RF3udGC4X2GpVjZguj-26" value="Query Data - SQL" style="edgeLabel;html=1;align=center;verticalAlign=middle;resizable=0;points=[];fontFamily=Helvetica;fontSize=11;fontColor=default;labelBackgroundColor=default;" parent="L2RF3udGC4X2GpVjZguj-25" vertex="1" connectable="0">
          <mxGeometry x="0.1197" y="1" relative="1" as="geometry">
            <mxPoint x="-85" as="offset" />
          </mxGeometry>
        </mxCell>
        <mxCell id="L2RF3udGC4X2GpVjZguj-29" style="edgeStyle=orthogonalEdgeStyle;shape=connector;rounded=0;orthogonalLoop=1;jettySize=auto;html=1;entryX=0.5;entryY=0;entryDx=0;entryDy=0;entryPerimeter=0;dashed=1;strokeColor=default;align=center;verticalAlign=middle;fontFamily=Helvetica;fontSize=11;fontColor=default;labelBackgroundColor=default;endArrow=classic;exitX=0.617;exitY=1.026;exitDx=0;exitDy=0;exitPerimeter=0;" parent="1" source="I_xNkVySgG1u-45DmAxw-5" target="L2RF3udGC4X2GpVjZguj-20" edge="1">
          <mxGeometry relative="1" as="geometry">
            <Array as="points">
              <mxPoint x="750" y="973" />
              <mxPoint x="750" y="1040" />
              <mxPoint x="730" y="1040" />
            </Array>
            <mxPoint x="800" y="970" as="sourcePoint" />
          </mxGeometry>
        </mxCell>
        <mxCell id="L2RF3udGC4X2GpVjZguj-30" value="Media Files (Binary) - HTTPS/REST" style="edgeLabel;html=1;align=center;verticalAlign=middle;resizable=0;points=[];fontFamily=Helvetica;fontSize=11;fontColor=default;labelBackgroundColor=default;" parent="L2RF3udGC4X2GpVjZguj-29" vertex="1" connectable="0">
          <mxGeometry x="-0.3364" relative="1" as="geometry">
            <mxPoint x="30" y="-4" as="offset" />
          </mxGeometry>
        </mxCell>
        <object placeholders="1" c4Name="External payment provider" c4Type="Container: Stripe" c4Description="Processes dontaions." label="&lt;font style=&quot;font-size: 16px&quot;&gt;&lt;b&gt;%c4Name%&lt;/b&gt;&lt;/font&gt;&lt;div&gt;[%c4Type%]&lt;/div&gt;&lt;br&gt;&lt;div&gt;&lt;font style=&quot;font-size: 11px&quot;&gt;&lt;font color=&quot;#cccccc&quot;&gt;%c4Description%&lt;/font&gt;&lt;/div&gt;" id="L2RF3udGC4X2GpVjZguj-41">
          <mxCell style="rounded=1;whiteSpace=wrap;html=1;labelBackgroundColor=none;fillColor=#8C8496;fontColor=#ffffff;align=center;arcSize=10;strokeColor=#736782;metaEdit=1;resizable=0;points=[[0.25,0,0],[0.5,0,0],[0.75,0,0],[1,0.25,0],[1,0.5,0],[1,0.75,0],[0.75,1,0],[0.5,1,0],[0.25,1,0],[0,0.75,0],[0,0.5,0],[0,0.25,0]];fontFamily=Helvetica;fontSize=11;" parent="1" vertex="1">
            <mxGeometry x="610" y="625" width="240" height="120" as="geometry" />
          </mxCell>
        </object>
        <mxCell id="L2RF3udGC4X2GpVjZguj-42" style="edgeStyle=orthogonalEdgeStyle;shape=connector;rounded=0;orthogonalLoop=1;jettySize=auto;html=1;entryX=0.5;entryY=1;entryDx=0;entryDy=0;entryPerimeter=0;dashed=1;strokeColor=default;align=center;verticalAlign=middle;fontFamily=Helvetica;fontSize=11;fontColor=default;labelBackgroundColor=default;endArrow=classic;" parent="1" source="L2RF3udGC4X2GpVjZguj-18" target="L2RF3udGC4X2GpVjZguj-41" edge="1">
          <mxGeometry relative="1" as="geometry">
            <Array as="points">
              <mxPoint x="430" y="810" />
              <mxPoint x="730" y="810" />
            </Array>
          </mxGeometry>
        </mxCell>
        <mxCell id="L2RF3udGC4X2GpVjZguj-43" value="Encrypted Payment Data - HTTPS/REST" style="edgeLabel;html=1;align=center;verticalAlign=middle;resizable=0;points=[];fontFamily=Helvetica;fontSize=11;fontColor=default;labelBackgroundColor=default;" parent="L2RF3udGC4X2GpVjZguj-42" vertex="1" connectable="0">
          <mxGeometry x="0.0112" relative="1" as="geometry">
            <mxPoint as="offset" />
          </mxGeometry>
        </mxCell>
        <mxCell id="L2RF3udGC4X2GpVjZguj-44" style="edgeStyle=orthogonalEdgeStyle;shape=connector;rounded=0;orthogonalLoop=1;jettySize=auto;html=1;entryX=0.15;entryY=-0.011;entryDx=0;entryDy=0;entryPerimeter=0;dashed=1;strokeColor=default;align=center;verticalAlign=middle;fontFamily=Helvetica;fontSize=11;fontColor=default;labelBackgroundColor=default;endArrow=classic;" parent="1" source="L2RF3udGC4X2GpVjZguj-2" target="L2RF3udGC4X2GpVjZguj-18" edge="1">
          <mxGeometry relative="1" as="geometry">
            <Array as="points">
              <mxPoint x="440" y="790" />
              <mxPoint x="346" y="790" />
            </Array>
          </mxGeometry>
        </mxCell>
        <mxCell id="L2RF3udGC4X2GpVjZguj-45" value="Donor and Charity Management - HTTPS/REST" style="edgeLabel;html=1;align=center;verticalAlign=middle;resizable=0;points=[];fontFamily=Helvetica;fontSize=11;fontColor=default;labelBackgroundColor=default;" parent="L2RF3udGC4X2GpVjZguj-44" vertex="1" connectable="0">
          <mxGeometry x="0.5983" y="-2" relative="1" as="geometry">
            <mxPoint x="-54" y="-4" as="offset" />
          </mxGeometry>
        </mxCell>
        <mxCell id="L2RF3udGC4X2GpVjZguj-46" style="edgeStyle=orthogonalEdgeStyle;shape=connector;rounded=0;orthogonalLoop=1;jettySize=auto;html=1;entryX=0.996;entryY=0.609;entryDx=0;entryDy=0;entryPerimeter=0;dashed=1;strokeColor=default;align=center;verticalAlign=middle;fontFamily=Helvetica;fontSize=11;fontColor=default;labelBackgroundColor=default;endArrow=classic;exitX=1;exitY=0.5;exitDx=0;exitDy=0;exitPerimeter=0;" parent="1" source="L2RF3udGC4X2GpVjZguj-2" target="I_xNkVySgG1u-45DmAxw-5" edge="1">
          <mxGeometry relative="1" as="geometry">
            <Array as="points">
              <mxPoint x="570" y="685" />
              <mxPoint x="570" y="570" />
              <mxPoint x="950" y="570" />
              <mxPoint x="950" y="923" />
            </Array>
            <mxPoint x="658.7200000000003" y="853.3599999999999" as="targetPoint" />
          </mxGeometry>
        </mxCell>
        <mxCell id="L2RF3udGC4X2GpVjZguj-47" value="Analytics Queries - HTTPS/REST" style="edgeLabel;html=1;align=center;verticalAlign=middle;resizable=0;points=[];fontFamily=Helvetica;fontSize=11;fontColor=default;labelBackgroundColor=default;" parent="L2RF3udGC4X2GpVjZguj-46" vertex="1" connectable="0">
          <mxGeometry x="-0.1129" y="2" relative="1" as="geometry">
            <mxPoint x="-123" as="offset" />
          </mxGeometry>
        </mxCell>
        <object placeholders="1" c4Name="Charity Project Management Service" c4Type="Software System" c4Description="Manages Charity Project&#39;s CRUD operations." label="&lt;font style=&quot;font-size: 16px&quot;&gt;&lt;b&gt;%c4Name%&lt;/b&gt;&lt;/font&gt;&lt;div&gt;[%c4Type%]&lt;/div&gt;&lt;br&gt;&lt;div&gt;&lt;font style=&quot;font-size: 11px&quot;&gt;&lt;font color=&quot;#cccccc&quot;&gt;%c4Description%&lt;/font&gt;&lt;/div&gt;" id="I_xNkVySgG1u-45DmAxw-2">
          <mxCell style="rounded=1;whiteSpace=wrap;html=1;labelBackgroundColor=none;fillColor=#8C8496;fontColor=#ffffff;align=center;arcSize=10;strokeColor=#736782;metaEdit=1;resizable=0;points=[[0.25,0,0],[0.5,0,0],[0.75,0,0],[1,0.25,0],[1,0.5,0],[1,0.75,0],[0.75,1,0],[0.5,1,0],[0.25,1,0],[0,0.75,0],[0,0.5,0],[0,0.25,0]];" vertex="1" parent="1">
            <mxGeometry y="1050" width="240" height="120" as="geometry" />
          </mxCell>
        </object>
        <object placeholders="1" c4Name="Statistics Service" c4Type="Software System" c4Description="Gather charity statistics." label="&lt;font style=&quot;font-size: 16px&quot;&gt;&lt;b&gt;%c4Name%&lt;/b&gt;&lt;/font&gt;&lt;div&gt;[%c4Type%]&lt;/div&gt;&lt;br&gt;&lt;div&gt;&lt;font style=&quot;font-size: 11px&quot;&gt;&lt;font color=&quot;#cccccc&quot;&gt;%c4Description%&lt;/font&gt;&lt;/div&gt;" id="I_xNkVySgG1u-45DmAxw-5">
          <mxCell style="rounded=1;whiteSpace=wrap;html=1;labelBackgroundColor=none;fillColor=#8C8496;fontColor=#ffffff;align=center;arcSize=10;strokeColor=#736782;metaEdit=1;resizable=0;points=[[0.25,0,0],[0.5,0,0],[0.75,0,0],[1,0.25,0],[1,0.5,0],[1,0.75,0],[0.75,1,0],[0.5,1,0],[0.25,1,0],[0,0.75,0],[0,0.5,0],[0,0.25,0]];" vertex="1" parent="1">
            <mxGeometry x="600" y="850" width="240" height="120" as="geometry" />
          </mxCell>
        </object>
        <mxCell id="I_xNkVySgG1u-45DmAxw-11" style="edgeStyle=orthogonalEdgeStyle;shape=connector;rounded=0;orthogonalLoop=1;jettySize=auto;html=1;dashed=1;strokeColor=default;align=center;verticalAlign=middle;fontFamily=Helvetica;fontSize=11;fontColor=default;labelBackgroundColor=default;endArrow=classic;" edge="1" parent="1" source="I_xNkVySgG1u-45DmAxw-7" target="L2RF3udGC4X2GpVjZguj-12">
          <mxGeometry relative="1" as="geometry">
            <Array as="points">
              <mxPoint x="60" y="798" />
              <mxPoint x="130" y="798" />
            </Array>
          </mxGeometry>
        </mxCell>
        <mxCell id="I_xNkVySgG1u-45DmAxw-12" value="Text" style="edgeLabel;html=1;align=center;verticalAlign=middle;resizable=0;points=[];fontFamily=Helvetica;fontSize=11;fontColor=default;labelBackgroundColor=default;" vertex="1" connectable="0" parent="I_xNkVySgG1u-45DmAxw-11">
          <mxGeometry x="-0.6798" y="-3" relative="1" as="geometry">
            <mxPoint as="offset" />
          </mxGeometry>
        </mxCell>
        <mxCell id="I_xNkVySgG1u-45DmAxw-13" value="Email Notifications - via Kafka topic Send Email&amp;nbsp;" style="edgeLabel;html=1;align=center;verticalAlign=middle;resizable=0;points=[];fontFamily=Helvetica;fontSize=11;fontColor=default;labelBackgroundColor=default;" vertex="1" connectable="0" parent="I_xNkVySgG1u-45DmAxw-11">
          <mxGeometry x="-0.691" y="-2" relative="1" as="geometry">
            <mxPoint as="offset" />
          </mxGeometry>
        </mxCell>
        <object placeholders="1" c4Name="Admin Project Management Service" c4Type="Container: Spring Boot" c4Description="Sends CRUD commands for the charity project management." label="&lt;font style=&quot;font-size: 16px&quot;&gt;&lt;b&gt;%c4Name%&lt;/b&gt;&lt;/font&gt;&lt;div&gt;[%c4Type%]&lt;/div&gt;&lt;br&gt;&lt;div&gt;&lt;font style=&quot;font-size: 11px&quot;&gt;&lt;font color=&quot;#cccccc&quot;&gt;%c4Description%&lt;/font&gt;&lt;/div&gt;" id="I_xNkVySgG1u-45DmAxw-7">
          <mxCell style="rounded=1;whiteSpace=wrap;html=1;labelBackgroundColor=none;fillColor=#1061B0;fontColor=#ffffff;align=center;arcSize=10;strokeColor=#0D5091;metaEdit=1;resizable=0;points=[[0.25,0,0],[0.5,0,0],[0.75,0,0],[1,0.25,0],[1,0.5,0],[1,0.75,0],[0.75,1,0],[0.5,1,0],[0.25,1,0],[0,0.75,0],[0,0.5,0],[0,0.25,0]];fontFamily=Helvetica;fontSize=11;" vertex="1" parent="1">
            <mxGeometry x="-60" y="625" width="240" height="120" as="geometry" />
          </mxCell>
        </object>
        <mxCell id="I_xNkVySgG1u-45DmAxw-8" style="edgeStyle=orthogonalEdgeStyle;rounded=0;orthogonalLoop=1;jettySize=auto;html=1;entryX=1;entryY=0.5;entryDx=0;entryDy=0;entryPerimeter=0;dashed=1;" edge="1" parent="1" source="L2RF3udGC4X2GpVjZguj-2" target="I_xNkVySgG1u-45DmAxw-7">
          <mxGeometry relative="1" as="geometry" />
        </mxCell>
        <mxCell id="I_xNkVySgG1u-45DmAxw-10" value="Project Management &lt;br&gt;Actions - HTTPS/REST" style="edgeLabel;html=1;align=center;verticalAlign=middle;resizable=0;points=[];fontFamily=Helvetica;fontSize=11;fontColor=default;labelBackgroundColor=default;" vertex="1" connectable="0" parent="I_xNkVySgG1u-45DmAxw-8">
          <mxGeometry x="0.0317" y="2" relative="1" as="geometry">
            <mxPoint x="-1" as="offset" />
          </mxGeometry>
        </mxCell>
        <mxCell id="I_xNkVySgG1u-45DmAxw-15" style="edgeStyle=orthogonalEdgeStyle;shape=connector;rounded=0;orthogonalLoop=1;jettySize=auto;html=1;entryX=0;entryY=0.5;entryDx=0;entryDy=0;entryPerimeter=0;dashed=1;strokeColor=default;align=center;verticalAlign=middle;fontFamily=Helvetica;fontSize=11;fontColor=default;labelBackgroundColor=default;endArrow=classic;" edge="1" parent="1" source="I_xNkVySgG1u-45DmAxw-7" target="I_xNkVySgG1u-45DmAxw-2">
          <mxGeometry relative="1" as="geometry">
            <Array as="points">
              <mxPoint x="-90" y="685" />
              <mxPoint x="-90" y="1120" />
            </Array>
          </mxGeometry>
        </mxCell>
        <mxCell id="I_xNkVySgG1u-45DmAxw-16" value="Highlight/halt/delete projects&lt;br&gt;- via Kafka topic Modify charity Project&amp;nbsp;" style="edgeLabel;html=1;align=center;verticalAlign=middle;resizable=0;points=[];fontFamily=Helvetica;fontSize=11;fontColor=default;labelBackgroundColor=default;" vertex="1" connectable="0" parent="I_xNkVySgG1u-45DmAxw-15">
          <mxGeometry x="-0.237" y="-1" relative="1" as="geometry">
            <mxPoint x="-29" y="18" as="offset" />
          </mxGeometry>
        </mxCell>
        <mxCell id="I_xNkVySgG1u-45DmAxw-18" style="edgeStyle=orthogonalEdgeStyle;shape=connector;rounded=0;orthogonalLoop=1;jettySize=auto;html=1;exitX=0.25;exitY=1;exitDx=0;exitDy=0;exitPerimeter=0;entryX=0.451;entryY=0.992;entryDx=0;entryDy=0;entryPerimeter=0;dashed=1;strokeColor=default;align=center;verticalAlign=middle;fontFamily=Helvetica;fontSize=11;fontColor=default;labelBackgroundColor=default;endArrow=classic;" edge="1" parent="1" source="L2RF3udGC4X2GpVjZguj-18" target="L2RF3udGC4X2GpVjZguj-12">
          <mxGeometry relative="1" as="geometry">
            <Array as="points">
              <mxPoint x="370" y="1010" />
              <mxPoint x="118" y="1010" />
            </Array>
          </mxGeometry>
        </mxCell>
        <mxCell id="I_xNkVySgG1u-45DmAxw-19" value="Send Sign Up Email &lt;br&gt;- via Kafka topic Send Email" style="edgeLabel;html=1;align=center;verticalAlign=middle;resizable=0;points=[];fontFamily=Helvetica;fontSize=11;fontColor=default;labelBackgroundColor=default;" vertex="1" connectable="0" parent="I_xNkVySgG1u-45DmAxw-18">
          <mxGeometry x="0.103" y="-1" relative="1" as="geometry">
            <mxPoint x="24" as="offset" />
          </mxGeometry>
        </mxCell>
      </root>
    </mxGraphModel>
  </diagram>
</mxfile>
